
<svg stroke="white" fill="white" stroke-width="0"
viewBox="0 0 448 512"
 xmlns="http://www.w3.org/2000/svg"

 width="1em" height="1em"
 >

<g transform="translate(0.000000,512.000000) scale(0.100000,-0.100000)"
fill="white" stroke="white">
<path d="M1841 3899 c-115 -816 -281 -1983 -284 -1985 -2 -2 -95 259 -206 579
-112 320 -207 588 -210 594 -4 7 -95 -138 -205 -327 l-199 -340 -369 0 -368 0
0 -105 0 -105 408 -1 c224 -1 418 0 432 1 30 2 17 -16 141 195 56 94 102 171
103 173 3 2 73 -196 408 -1151 125 -359 154 -433 160 -410 4 15 71 478 148
1028 77 550 143 1013 146 1030 7 32 3 44 204 -635 56 -190 134 -453 174 -586
39 -132 75 -241 79 -243 7 -2 266 359 611 852 50 70 92 127 95 126 3 0 24 -22
46 -48 22 -26 96 -111 164 -189 l125 -142 463 0 463 0 0 -130 c0 -98 3 -130
13 -129 6 0 175 82 375 182 l362 182 -365 183 c-201 100 -370 182 -375 182 -6
0 -10 -50 -10 -130 l0 -130 -410 0 -409 0 -228 260 c-125 143 -231 260 -234
260 -3 0 -140 -191 -305 -424 -164 -233 -300 -423 -301 -422 -3 2 -73 239
-368 1236 -124 421 -229 774 -233 784 -6 13 -20 -64 -41 -215z"/>
</g>
</svg>
