<svg version="1.0" xmlns="http://www.w3.org/2000/svg"
 width="743.000000pt" height="1000.000000pt" viewBox="0 0 743.000000 1000.000000"
 preserveAspectRatio="xMidYMid meet">

<g transform="translate(0.000000,1000.000000) scale(0.100000,-0.100000)"
fill="white" stroke="none">
<path d="M3170 9766 c-237 -32 -464 -72 -584 -102 -98 -25 -176 -57 -176 -73
0 -17 -56 -32 -149 -41 -188 -18 -433 -120 -554 -230 -99 -91 -127 -163 -166
-435 -40 -275 -54 -449 -55 -665 -1 -241 6 -282 71 -398 42 -77 146 -189 228
-247 124 -88 317 -166 480 -195 39 -7 96 -21 128 -32 49 -18 72 -20 155 -15
129 9 197 28 290 81 42 25 105 54 140 65 57 20 65 20 92 6 39 -20 108 -19 172
4 29 10 83 26 120 36 108 28 180 104 218 233 7 23 16 42 19 42 9 0 74 -169
105 -270 35 -120 59 -228 112 -515 69 -371 70 -460 14 -1320 -11 -165 -25
-435 -32 -599 -10 -242 -15 -302 -28 -317 -14 -17 -21 -11 -115 98 -157 182
-292 278 -466 331 -216 67 -543 87 -704 43 -213 -57 -388 -183 -771 -554 -84
-81 -157 -147 -164 -147 -7 0 -47 16 -89 36 -123 58 -391 161 -596 229 -197
65 -475 145 -506 145 -10 0 -23 -9 -29 -20 -17 -31 -28 -238 -50 -915 -11
-346 -27 -818 -35 -1048 -11 -298 -15 -752 -15 -1582 0 -1264 -3 -1195 54
-1181 35 9 150 136 221 245 61 94 172 296 282 515 l54 108 82 -6 c151 -13 359
-47 787 -129 l425 -82 320 0 c347 0 451 8 745 56 457 75 950 235 1421 461 290
139 548 288 1119 643 140 87 330 198 421 245 274 143 446 267 638 461 208 209
317 386 372 604 27 109 30 132 27 245 -4 124 -4 126 -70 320 -81 236 -101 317
-128 525 -57 437 -170 796 -387 1229 -183 366 -363 653 -968 1546 -473 700
-643 993 -935 1610 -144 305 -256 519 -309 591 -29 39 -71 80 -106 103 -109
73 -417 197 -622 252 -141 37 -279 40 -503 10z"/>
</g>
</svg>